<?xml version="1.0" encoding="UTF-8"?>
<svg width="1214px" height="477px" viewBox="0 0 1214 477" version="1.1" xmlns="http://www.w3.org/2000/svg" xmlns:xlink="http://www.w3.org/1999/xlink">
    <title>Group</title>
    <defs>
        <linearGradient x1="50%" y1="0%" x2="50%" y2="100%" id="linearGradient-1">
            <stop stop-color="#E94796" offset="0%"></stop>
            <stop stop-color="#C32FD2" offset="100%"></stop>
        </linearGradient>
        <path d="M388.032039,18.1018431 C400.314995,18.1018431 411,-8.60246862 411,3.67030816 C411,8.52196027 410.831592,13.3343111 410.500297,18.1018431 C403.088059,124.768579 314.13884,209 205.5,209 C92.0054839,209 0,117.070766 0,3.67030816 C0,-8.60246862 8.46177626,13.8362571 20.7447325,13.8362571 C32.8443611,13.8362571 44.5741596,10.0532052 44.7588532,13.2092903 C49.6987723,97.6237251 119.776428,164.556344 205.5,164.556344 C291.266061,164.556344 361.370691,97.5573588 366.248444,13.0837582 C366.377731,10.8447589 366.461193,8.59348305 366.497909,6.33085294 L366.519481,3.67030816 C366.519481,-8.60246862 375.749083,18.1018431 388.032039,18.1018431 Z" id="path-2"></path>
        <linearGradient x1="50%" y1="0%" x2="50%" y2="100%" id="linearGradient-4">
            <stop stop-color="#071324" offset="0%"></stop>
            <stop stop-color="#071324" stop-opacity="0" offset="100%"></stop>
        </linearGradient>
        <linearGradient x1="50%" y1="0%" x2="50%" y2="100%" id="linearGradient-5">
            <stop stop-color="#E94796" offset="0%"></stop>
            <stop stop-color="#C32FD2" offset="100%"></stop>
        </linearGradient>
        <path d="M384.313212,52.5802101 C396.615468,52.5802101 411.424646,33.3461507 410.990682,38.8006753 C402.565856,144.692937 313.927262,228 205.82289,228 C92.1500465,228 0,135.889583 0,22.265625 C0,9.96865987 9.97294876,0 22.2752045,0 C30.3542978,0 25.8082557,4.0386875 8.63707812,12.1160625 C8.63707812,22.4783557 45.5285487,42.7618528 47.3975718,52.5802101 C61.5866907,127.11853 127.121309,183.46875 205.82289,183.46875 C287.87253,183.46875 355.611104,122.222137 365.777367,42.9715488 C366.53665,37.052593 372.010957,52.5802101 384.313212,52.5802101 Z" id="path-6"></path>
        <linearGradient x1="50%" y1="0%" x2="50%" y2="100%" id="linearGradient-8">
            <stop stop-color="#071324" offset="0%"></stop>
            <stop stop-color="#071324" stop-opacity="0" offset="100%"></stop>
        </linearGradient>
    </defs>
    <g id="Page-1" stroke="none" stroke-width="1" fill="none" fill-rule="evenodd">
        <g id="Artboard" transform="translate(-386.000000, -448.000000)">
            <g id="Group" transform="translate(386.000000, 448.000000)">
                <g id="Group-2" transform="translate(226.000000, 0.000000)">
                    <g id="Rectangle" transform="translate(360.000000, 268.000000)">
                        <mask id="mask-3" fill="white">
                            <use xlink:href="#path-2"></use>
                        </mask>
                        <use id="Mask" fill="url(#linearGradient-1)" fill-rule="nonzero" xlink:href="#path-2"></use>
                        <rect fill="url(#linearGradient-4)" mask="url(#mask-3)" x="-66.7207792" y="-22.9958856" width="540.883117" height="183.107864"></rect>
                    </g>
                    <g id="Rectangle">
                        <mask id="mask-7" fill="white">
                            <use xlink:href="#path-6"></use>
                        </mask>
                        <use id="Mask" fill="url(#linearGradient-5)" fill-rule="nonzero" transform="translate(205.500000, 114.000000) scale(1, -1) translate(-205.500000, -114.000000) " xlink:href="#path-6"></use>
                        <polygon fill="url(#linearGradient-8)" mask="url(#mask-7)" transform="translate(154.144415, 114.000000) scale(1, -1) translate(-154.144415, -114.000000) " points="-116.722072 -0.890625 425.010902 -0.890625 425.010902 228.890625 -116.722072 228.890625 -116.722072 184.437556"></polygon>
                    </g>
                </g>
                <g id="DEVotion" transform="translate(0.000000, 98.000000)" fill="#FFFFFF" fill-rule="nonzero">
                    <path d="M80.9138211,6 C108.855285,6 132.188347,15.8114286 150.913008,35.4342857 C169.637669,55.0571429 179,79.2457143 179,108 C179,136.754286 169.637669,160.942857 150.913008,180.565714 C132.188347,200.188571 108.855285,210 80.9138211,210 L0,210 L0,6 L80.9138211,6 Z M80.9138211,171.531429 C98.5712737,171.531429 112.930081,165.654286 123.990244,153.9 C135.050407,142.145714 140.580488,126.845714 140.580488,108 C140.580488,89.1542857 135.050407,73.8542857 123.990244,62.1 C112.930081,50.3457143 98.5712737,44.4685714 80.9138211,44.4685714 L40.1658537,44.4685714 L40.1658537,171.531429 L80.9138211,171.531429 Z" id="Shape"></path>
                    <polygon id="Path" points="248.157044 171.531429 334 171.531429 334 210 208 210 208 6 332.545035 6 332.545035 44.4685714 248.157044 44.4685714 248.157044 87.8914286 325.270208 87.8914286 325.270208 125.777143 248.157044 125.777143"></polygon>
                    <polygon id="Path" points="412.450156 210 344 6 387.691589 6 437.5 162.788571 487.017134 6 531 6 462.258567 210"></polygon>
                    <path d="M672.584121,191.833333 C657.640202,206.611111 639.396975,214 617.854442,214 C596.311909,214 578.117202,206.5625 563.270321,191.6875 C548.42344,176.8125 541,158.583333 541,137 C541,115.416667 548.42344,97.1875 563.270321,82.3125 C578.117202,67.4375 596.311909,60 617.854442,60 C639.396975,60 657.640202,67.4375 672.584121,82.3125 C687.52804,97.1875 695,115.416667 695,137 C695,158.583333 687.52804,176.861111 672.584121,191.833333 Z M589.616257,165.875 C597.185255,173.458333 606.597984,177.25 617.854442,177.25 C629.110901,177.25 638.523629,173.458333 646.092628,165.875 C653.661626,158.291667 657.446125,148.666667 657.446125,137 C657.446125,125.333333 653.661626,115.708333 646.092628,108.125 C638.523629,100.541667 629.110901,96.75 617.854442,96.75 C606.597984,96.75 597.233774,100.541667 589.761815,108.125 C582.289855,115.708333 578.553875,125.333333 578.553875,137 C578.553875,148.666667 582.241336,158.291667 589.616257,165.875 Z" id="Shape"></path>
                    <path d="M805,99.6475653 L772.027356,99.6475653 L772.027356,160.036556 C772.027356,165.068972 773.291793,168.746507 775.820669,171.06916 C778.349544,173.391814 782.045593,174.698306 786.908815,174.988638 C791.772036,175.27897 797.802432,175.230581 805,174.843472 L805,208.812279 C779.12766,211.715596 760.890578,209.296166 750.288754,201.553987 C739.68693,193.811809 734.386018,179.972665 734.386018,160.036556 L734.386018,99.6475653 L709,99.6475653 L709,63.6464361 L734.386018,63.6464361 L734.386018,34.3229358 L772.027356,23 L772.027356,63.6464361 L805,63.6464361 L805,99.6475653 Z" id="Path"></path>
                    <path d="M851.855346,46.2183588 C845.683438,46.2183588 840.331237,43.9413537 835.798742,39.3873435 C831.266247,34.8333333 829,29.4557255 829,23.2545202 C829,17.0533148 831.266247,11.6272601 835.798742,6.97635605 C840.331237,2.32545202 845.683438,0 851.855346,0 C858.220126,0 863.668763,2.32545202 868.201258,6.97635605 C872.733753,11.6272601 875,17.0533148 875,23.2545202 C875,29.4557255 872.733753,34.8333333 868.201258,39.3873435 C863.668763,43.9413537 858.220126,46.2183588 851.855346,46.2183588 Z M833.339623,209 L833.339623,63.659249 L870.660377,63.659249 L870.660377,209 L833.339623,209 Z" id="Shape"></path>
                    <path d="M1029.58412,191.833333 C1014.6402,206.611111 996.396975,214 974.854442,214 C953.311909,214 935.117202,206.5625 920.270321,191.6875 C905.42344,176.8125 898,158.583333 898,137 C898,115.416667 905.42344,97.1875 920.270321,82.3125 C935.117202,67.4375 953.311909,60 974.854442,60 C996.396975,60 1014.6402,67.4375 1029.58412,82.3125 C1044.52804,97.1875 1052,115.416667 1052,137 C1052,158.583333 1044.52804,176.861111 1029.58412,191.833333 Z M946.616257,165.875 C954.185255,173.458333 963.597984,177.25 974.854442,177.25 C986.110901,177.25 995.523629,173.458333 1003.09263,165.875 C1010.66163,158.291667 1014.44612,148.666667 1014.44612,137 C1014.44612,125.333333 1010.66163,115.708333 1003.09263,108.125 C995.523629,100.541667 986.110901,96.75 974.854442,96.75 C963.597984,96.75 954.233774,100.541667 946.761815,108.125 C939.289855,115.708333 935.553875,125.333333 935.553875,137 C935.553875,148.666667 939.241336,158.291667 946.616257,165.875 Z" id="Shape"></path>
                    <path d="M1158.95931,60 C1174.87937,60 1188.03283,65.3501946 1198.4197,76.0505837 C1208.80657,86.7509728 1214,101.536965 1214,120.40856 L1214,210 L1176.43255,210 L1176.43255,125.077821 C1176.43255,115.350195 1173.81156,107.90856 1168.56959,102.752918 C1163.32762,97.5972763 1156.33833,95.0194553 1147.60171,95.0194553 C1137.89436,95.0194553 1130.12848,98.0350195 1124.30407,104.066148 C1118.47966,110.097276 1115.56745,119.143969 1115.56745,131.206226 L1115.56745,210 L1078,210 L1078,64.0856031 L1115.56745,64.0856031 L1115.56745,80.4280156 C1124.69236,66.8093385 1139.15632,60 1158.95931,60 Z" id="Path"></path>
                </g>
            </g>
        </g>
    </g>
</svg>